<svg width="239" height="49" viewBox="0 0 239 49" fill="none" xmlns="http://www.w3.org/2000/svg">
<path d="M16.5013 5.33915V45.6592H4.50133C3.40133 45.6592 2.50133 44.7592 2.50133 43.6592V9.65915C2.50133 8.43915 2.81133 7.21915 3.46133 6.08915C5.44133 2.65915 9.82133 1.47915 13.2513 3.45915L16.5013 5.33915Z" fill="#78DED4"/>
<path d="M16.5013 48.1592H4.50133C2.02133 48.1592 0.00132751 46.1392 0.00132751 43.6592V9.65915C0.00132751 7.97915 0.451328 6.30915 1.29133 4.83915C3.96133 0.219152 9.89133 -1.37085 14.5013 1.29915L17.7513 3.17915C18.5213 3.62915 19.0013 4.44915 19.0013 5.33915V45.6592C19.0013 47.0392 17.8813 48.1592 16.5013 48.1592ZM5.00133 43.1592H14.0013V6.77915L12.0013 5.61915C10.9213 4.99915 9.66133 4.82915 8.46133 5.15915C7.26133 5.47915 6.25133 6.25915 5.62133 7.33915C5.21133 8.05915 5.00133 8.83915 5.00133 9.65915V43.1592Z" fill="#00AF9A"/>
<path d="M45.5013 5.33915V45.6592H57.5013C58.6013 45.6592 59.5013 44.7592 59.5013 43.6592V9.65915C59.5013 8.43915 59.1913 7.21915 58.5413 6.08915C56.5613 2.65915 52.1813 1.47915 48.7513 3.45915L45.5013 5.33915Z" fill="#54C8E8"/>
<path d="M58.5413 6.08915C56.5613 2.65915 52.1813 1.48915 48.7513 3.46915L31.0013 13.7091L13.2513 3.45915C9.82132 1.47915 5.44133 2.65915 3.46133 6.07915C1.48133 9.50915 2.66132 13.8892 6.08132 15.8692L31.0013 30.2592L55.9113 15.8791C59.3413 13.8991 60.5213 9.50915 58.5413 6.08915Z" fill="#FD4A5C"/>
<path d="M31.0013 32.7592C30.9313 32.7592 30.8713 32.7591 30.8013 32.7491C30.4413 32.7191 30.0713 32.6192 29.7413 32.4192L4.83133 18.0392C0.211328 15.3792 -1.36867 9.44915 1.29133 4.83915C3.95133 0.229153 9.88133 -1.36085 14.4913 1.29915L31.0013 10.8292L47.5013 1.29915C49.7313 0.00915289 52.3413 -0.330847 54.8313 0.329153C57.3213 0.999153 59.4113 2.59915 60.7013 4.82915C61.9913 7.05915 62.3313 9.66915 61.6713 12.1592C61.0113 14.6492 59.4013 16.7392 57.1713 18.0292L32.2513 32.4192C31.8613 32.6492 31.4313 32.7592 31.0013 32.7592ZM9.67133 4.99915C8.06133 4.99915 6.48133 5.83915 5.62133 7.32915C4.33133 9.55915 5.10133 12.4192 7.33133 13.6992L31.0013 27.3692L54.6713 13.7092C55.7513 13.0892 56.5213 12.0792 56.8413 10.8792C57.1613 9.67915 57.0013 8.41915 56.3713 7.33915C55.7413 6.25915 54.7413 5.48915 53.5413 5.16915C52.3413 4.84915 51.0813 5.00915 50.0013 5.63915L32.2513 15.8792C31.4813 16.3292 30.5213 16.3292 29.7513 15.8792L12.0013 5.62915C11.2613 5.20915 10.4613 4.99915 9.67133 4.99915Z" fill="#F32735"/>
<path d="M16.5013 5.33915V21.8892L6.08133 15.8692C3.79133 14.5392 2.50133 12.1292 2.50133 9.65915C2.50133 8.43915 2.81133 7.21915 3.46133 6.08915C5.44133 2.65915 9.82133 1.47915 13.2513 3.45915L16.5013 5.33915Z" fill="#ED40A9"/>
<path d="M16.5013 5.33915V21.8892L6.08133 15.8692C3.79133 14.5392 2.50133 12.1292 2.50133 9.65915C2.50133 8.43915 2.81133 7.21915 3.46133 6.08915C5.44133 2.65915 9.82133 1.47915 13.2513 3.45915L16.5013 5.33915Z" fill="#ED40A9"/>
<path d="M16.5013 24.3892C16.0713 24.3892 15.6413 24.2792 15.2513 24.0492L4.83133 18.0392C1.85133 16.2992 0.00132751 13.0992 0.00132751 9.65915C0.00132751 7.97915 0.451328 6.30915 1.29133 4.83915C3.96133 0.219152 9.89133 -1.37085 14.5013 1.29915L17.7513 3.17915C18.5213 3.62915 19.0013 4.44915 19.0013 5.33915V21.8892C19.0013 22.7792 18.5213 23.6092 17.7513 24.0592C17.3613 24.2792 16.9313 24.3892 16.5013 24.3892ZM9.68133 4.99915C8.06133 4.99915 6.49133 5.83915 5.63133 7.33915C5.21133 8.05915 5.00133 8.83915 5.00133 9.65915C5.00133 11.3192 5.90133 12.8692 7.34133 13.7092L14.0013 17.5592V6.77915L12.0013 5.61915C11.2713 5.19915 10.4713 4.99915 9.68133 4.99915Z" fill="#CB007B"/>
<path d="M6.08133 18.3692C5.65133 18.3692 5.22133 18.2592 4.83133 18.0292C1.85133 16.2992 0.00132751 13.0992 0.00132751 9.65915C0.00132751 7.97915 0.451328 6.30915 1.29133 4.83915C3.96133 0.219152 9.89133 -1.37085 14.5013 1.29915C15.7013 1.98915 16.1113 3.51915 15.4213 4.71915C14.7313 5.90915 13.2013 6.32915 12.0013 5.63915C9.77133 4.34915 6.91133 5.11915 5.62133 7.34915C5.21133 8.05915 5.00133 8.83915 5.00133 9.65915C5.00133 11.3192 5.90133 12.8692 7.34133 13.7092C8.53133 14.3992 8.94133 15.9292 8.25133 17.1292C7.78133 17.9292 6.94133 18.3692 6.08133 18.3692Z" fill="#E50695"/>
<path d="M57.5013 48.1591H45.5013C44.1213 48.1591 43.0013 47.0391 43.0013 45.6591V5.33915C43.0013 4.44915 43.4813 3.61915 44.2513 3.17915L47.5013 1.29915C52.1213 -1.36085 58.0413 0.219148 60.7113 4.83915C61.5513 6.30915 62.0013 7.97915 62.0013 9.65915V43.6591C62.0013 46.1391 59.9813 48.1591 57.5013 48.1591ZM48.0013 43.1591H57.0013V9.65915C57.0013 8.83915 56.7913 8.05915 56.3713 7.33915C55.0813 5.10915 52.2213 4.33915 50.0013 5.62915L48.0013 6.78915V43.1591Z" fill="#0C82EB"/>
<path d="M59.5013 9.65915C59.5013 12.1292 58.2113 14.5392 55.9213 15.8692L45.5013 21.8892V5.33915L48.7513 3.45915C52.1813 1.47915 56.5613 2.65915 58.5413 6.08915C59.1913 7.21915 59.5013 8.43915 59.5013 9.65915Z" fill="#FFC56D"/>
<path d="M45.5013 24.3891C45.0713 24.3891 44.6413 24.2791 44.2513 24.0591C43.4713 23.6091 43.0013 22.7791 43.0013 21.8891V5.33915C43.0013 4.44915 43.4813 3.61915 44.2513 3.17915L47.5013 1.29915C52.1213 -1.36085 58.0413 0.219148 60.7113 4.83915C61.5513 6.30915 62.0013 7.97915 62.0013 9.65915C62.0013 13.0991 60.1513 16.2991 57.1813 18.0291L46.7613 24.0491C46.3613 24.2791 45.9313 24.3891 45.5013 24.3891ZM48.0013 6.77915V17.5591L54.6713 13.7091C56.1013 12.8691 57.0013 11.3191 57.0013 9.65915C57.0013 8.83915 56.7913 8.05915 56.3713 7.33915C55.0813 5.10915 52.2213 4.33915 50.0013 5.62915L48.0013 6.77915Z" fill="#FF9E18"/>
<path d="M55.9213 18.3692C55.0613 18.3692 54.2213 17.9192 53.7613 17.1192C53.0713 15.9292 53.4713 14.3992 54.6713 13.6992C56.1013 12.8692 57.0013 11.3192 57.0013 9.65915C57.0013 8.83915 56.7913 8.05915 56.3713 7.33915C55.0813 5.10915 52.2213 4.33915 50.0013 5.62915C48.8113 6.31915 47.2813 5.90915 46.5813 4.70915C45.8913 3.50915 46.3013 1.98915 47.5013 1.28915C52.1113 -1.37085 58.0413 0.219151 60.7113 4.82915C61.5513 6.30915 62.0013 7.97915 62.0013 9.65915C62.0013 13.0992 60.1513 16.2992 57.1813 18.0292C56.7813 18.2592 56.3513 18.3692 55.9213 18.3692Z" fill="#FFB548"/>
<path d="M83.4006 33.0791V11.72H88.082V33.0791H83.4006ZM87.4968 33.0791V29.0999H96.8305V33.0791H87.4968ZM87.4968 24.2136V20.2344H96.1575V24.2136H87.4968ZM87.4968 15.6992V11.72H96.6257V15.6992H87.4968ZM110.195 33.0791V28.3392H109.405V23.1896C109.405 22.3703 109.21 21.7559 108.819 21.3463C108.429 20.9366 107.805 20.7318 106.947 20.7318C106.518 20.7318 105.952 20.7416 105.25 20.7611C104.548 20.7806 103.826 20.8098 103.085 20.8488C102.343 20.8879 101.67 20.9269 101.066 20.9659V17.0159C101.514 16.9769 102.041 16.9379 102.646 16.8989C103.25 16.8599 103.875 16.8306 104.518 16.8111C105.162 16.7916 105.767 16.7818 106.332 16.7818C107.971 16.7818 109.346 17.0159 110.458 17.4841C111.589 17.9522 112.448 18.6642 113.033 19.62C113.618 20.5563 113.91 21.7656 113.91 23.2481V33.0791H110.195ZM105.074 33.4888C103.923 33.4888 102.909 33.284 102.031 32.8743C101.173 32.4647 100.5 31.8795 100.012 31.1188C99.5248 30.3385 99.2809 29.412 99.2809 28.3392C99.2809 27.1688 99.5833 26.213 100.188 25.4718C100.793 24.711 101.641 24.1551 102.734 23.804C103.826 23.4334 105.084 23.2481 106.508 23.2481H109.931V25.8522H106.479C105.659 25.8522 105.025 26.057 104.577 26.4666C104.148 26.8567 103.933 27.3931 103.933 28.0758C103.933 28.7195 104.148 29.2462 104.577 29.6558C105.025 30.046 105.659 30.241 106.479 30.241C107.005 30.241 107.473 30.1532 107.883 29.9777C108.312 29.7826 108.663 29.4608 108.936 29.0121C109.21 28.5635 109.366 27.9393 109.405 27.1396L110.516 28.3099C110.419 29.4218 110.146 30.3581 109.697 31.1188C109.268 31.8795 108.663 32.4647 107.883 32.8743C107.122 33.284 106.186 33.4888 105.074 33.4888ZM123.968 33.5766C121.686 33.5766 119.901 33.1084 118.614 32.1721C117.326 31.2358 116.644 29.9192 116.566 28.2221H120.721C120.799 28.7293 121.101 29.1877 121.628 29.5973C122.174 29.9874 122.983 30.1825 124.056 30.1825C124.875 30.1825 125.548 30.046 126.075 29.7729C126.621 29.4803 126.894 29.0707 126.894 28.544C126.894 28.0758 126.689 27.7052 126.28 27.4321C125.87 27.1396 125.139 26.9347 124.085 26.8177L122.827 26.7007C120.896 26.5056 119.443 25.9692 118.468 25.0914C117.512 24.2136 117.034 23.092 117.034 21.7266C117.034 20.5953 117.317 19.6492 117.882 18.8885C118.448 18.1278 119.228 17.5523 120.223 17.1622C121.237 16.7721 122.388 16.577 123.676 16.577C125.743 16.577 127.411 17.0354 128.679 17.9522C129.947 18.8495 130.61 20.1564 130.669 21.8729H126.514C126.436 21.3463 126.163 20.9074 125.695 20.5563C125.226 20.1856 124.534 20.0003 123.617 20.0003C122.895 20.0003 122.32 20.1369 121.891 20.41C121.462 20.683 121.247 21.0537 121.247 21.5218C121.247 21.9704 121.433 22.3118 121.803 22.5459C122.174 22.7799 122.778 22.9457 123.617 23.0433L124.875 23.1603C126.845 23.3749 128.377 23.9211 129.469 24.7988C130.561 25.6766 131.108 26.8567 131.108 28.3392C131.108 29.412 130.815 30.3483 130.23 31.148C129.645 31.9283 128.816 32.533 127.743 32.9621C126.67 33.3717 125.412 33.5766 123.968 33.5766ZM133.794 39.4284V35.4491H137.129C137.636 35.4491 138.065 35.3809 138.417 35.2443C138.768 35.1273 139.051 34.9225 139.265 34.6299C139.48 34.3373 139.655 33.9374 139.792 33.4303L143.742 17.0452H148.189L143.712 34.3665C143.4 35.6149 142.961 36.6097 142.396 37.351C141.85 38.0922 141.108 38.6189 140.172 38.931C139.255 39.2626 138.085 39.4284 136.661 39.4284H133.794ZM138.826 32.728V29.0707H142.22V32.728H138.826ZM136.895 32.728L131.98 17.0452H136.69L141.342 32.728H136.895ZM157.063 33.0791V11.72H161.744V33.0791H157.063ZM161.159 33.0791V29.0999H170.493V33.0791H161.159ZM161.159 24.2136V20.2344H169.82V24.2136H161.159ZM161.159 15.6992V11.72H170.288V15.6992H161.159ZM174.172 33.0791V17.0452H177.888V23.9503H177.624C177.624 22.3118 177.829 20.9464 178.239 19.854C178.649 18.7617 179.263 17.9424 180.082 17.3963C180.901 16.8306 181.906 16.5478 183.096 16.5478H183.301C184.51 16.5478 185.515 16.8306 186.314 17.3963C187.134 17.9424 187.748 18.7617 188.158 19.854C188.587 20.9464 188.801 22.3118 188.801 23.9503H187.66C187.66 22.3118 187.865 20.9464 188.275 19.854C188.704 18.7617 189.328 17.9424 190.147 17.3963C190.967 16.8306 191.971 16.5478 193.161 16.5478H193.366C194.575 16.5478 195.59 16.8306 196.409 17.3963C197.248 17.9424 197.881 18.7617 198.311 19.854C198.74 20.9464 198.954 22.3118 198.954 23.9503V33.0791H194.273V23.687C194.273 22.8092 194.039 22.0972 193.571 21.5511C193.122 21.0049 192.478 20.7318 191.64 20.7318C190.801 20.7318 190.138 21.0146 189.65 21.5803C189.162 22.1265 188.918 22.858 188.918 23.7748V33.0791H184.208V23.687C184.208 22.8092 183.974 22.0972 183.506 21.5511C183.057 21.0049 182.423 20.7318 181.604 20.7318C180.745 20.7318 180.072 21.0146 179.585 21.5803C179.097 22.1265 178.853 22.858 178.853 23.7748V33.0791H174.172ZM212.63 33.0791V28.3392H211.84V23.1896C211.84 22.3703 211.645 21.7559 211.255 21.3463C210.865 20.9366 210.24 20.7318 209.382 20.7318C208.953 20.7318 208.387 20.7416 207.685 20.7611C206.983 20.7806 206.261 20.8098 205.52 20.8488C204.779 20.8879 204.106 20.9269 203.501 20.9659V17.0159C203.95 16.9769 204.476 16.9379 205.081 16.8989C205.686 16.8599 206.31 16.8306 206.954 16.8111C207.597 16.7916 208.202 16.7818 208.768 16.7818C210.406 16.7818 211.781 17.0159 212.893 17.4841C214.025 17.9522 214.883 18.6642 215.468 19.62C216.053 20.5563 216.346 21.7656 216.346 23.2481V33.0791H212.63ZM207.51 33.4888C206.359 33.4888 205.344 33.284 204.467 32.8743C203.608 32.4647 202.935 31.8795 202.448 31.1188C201.96 30.3385 201.716 29.412 201.716 28.3392C201.716 27.1688 202.019 26.213 202.623 25.4718C203.228 24.711 204.077 24.1551 205.169 23.804C206.261 23.4334 207.519 23.2481 208.943 23.2481H212.367V25.8522H208.914C208.095 25.8522 207.461 26.057 207.012 26.4666C206.583 26.8567 206.369 27.3931 206.369 28.0758C206.369 28.7195 206.583 29.2462 207.012 29.6558C207.461 30.046 208.095 30.241 208.914 30.241C209.441 30.241 209.909 30.1532 210.319 29.9777C210.748 29.7826 211.099 29.4608 211.372 29.0121C211.645 28.5635 211.801 27.9393 211.84 27.1396L212.952 28.3099C212.854 29.4218 212.581 30.3581 212.133 31.1188C211.703 31.8795 211.099 32.4647 210.319 32.8743C209.558 33.284 208.621 33.4888 207.51 33.4888ZM221.079 33.0791V17.0452H225.76V33.0791H221.079ZM218.943 20.4977V17.0452H225.76V20.4977H218.943ZM222.893 15.4652C222.015 15.4652 221.361 15.2409 220.932 14.7922C220.523 14.3241 220.318 13.7389 220.318 13.0367C220.318 12.3149 220.523 11.7298 220.932 11.2811C221.361 10.813 222.015 10.5789 222.893 10.5789C223.77 10.5789 224.414 10.813 224.824 11.2811C225.253 11.7298 225.467 12.3149 225.467 13.0367C225.467 13.7389 225.253 14.3241 224.824 14.7922C224.414 15.2409 223.77 15.4652 222.893 15.4652ZM230.295 33.0791V11.72H235.005V33.0791H230.295ZM228.393 15.1726V11.72H235.005V15.1726H228.393Z" fill="black"/>
</svg>
