<svg width="100" height="100" viewBox="0 0 100 100" fill="none" xmlns="http://www.w3.org/2000/svg">
<path d="M35.5013 31.3391V71.6591H23.5013C22.4013 71.6591 21.5013 70.7591 21.5013 69.6591V35.6591C21.5013 34.4391 21.8113 33.2191 22.4613 32.0891C24.4413 28.6591 28.8213 27.4791 32.2513 29.4591L35.5013 31.3391Z" fill="#78DED4"/>
<path d="M35.5013 74.1592H23.5013C21.0213 74.1592 19.0013 72.1392 19.0013 69.6592V35.6592C19.0013 33.9792 19.4513 32.3092 20.2913 30.8392C22.9613 26.2192 28.8913 24.6292 33.5013 27.2992L36.7513 29.1792C37.5213 29.6292 38.0013 30.4492 38.0013 31.3392V71.6592C38.0013 73.0392 36.8813 74.1592 35.5013 74.1592ZM24.0013 69.1592H33.0013V32.7792L31.0013 31.6192C29.9213 30.9992 28.6613 30.8292 27.4613 31.1592C26.2613 31.4792 25.2513 32.2592 24.6213 33.3392C24.2113 34.0592 24.0013 34.8392 24.0013 35.6592V69.1592Z" fill="#00AF9A"/>
<path d="M64.5013 31.3391V71.6591H76.5013C77.6013 71.6591 78.5013 70.7591 78.5013 69.6591V35.6591C78.5013 34.4391 78.1913 33.2191 77.5413 32.0891C75.5613 28.6591 71.1813 27.4791 67.7513 29.4591L64.5013 31.3391Z" fill="#54C8E8"/>
<path d="M77.5413 32.0892C75.5613 28.6592 71.1813 27.4892 67.7513 29.4692L50.0013 39.7092L32.2513 29.4592C28.8213 27.4792 24.4413 28.6592 22.4613 32.0792C20.4813 35.5092 21.6613 39.8892 25.0813 41.8692L50.0013 56.2592L74.9113 41.8792C78.3413 39.8992 79.5213 35.5092 77.5413 32.0892Z" fill="#FD4A5C"/>
<path d="M50.0013 58.7592C49.9313 58.7592 49.8713 58.7592 49.8013 58.7492C49.4413 58.7192 49.0713 58.6192 48.7413 58.4192L23.8313 44.0392C19.2113 41.3792 17.6313 35.4492 20.2913 30.8392C22.9513 26.2292 28.8813 24.6392 33.4913 27.2992L50.0013 36.8292L66.5013 27.2992C68.7313 26.0092 71.3413 25.6692 73.8313 26.3292C76.3213 26.9992 78.4113 28.5992 79.7013 30.8292C80.9913 33.0592 81.3313 35.6692 80.6713 38.1592C80.0113 40.6492 78.4013 42.7392 76.1713 44.0292L51.2513 58.4192C50.8613 58.6492 50.4313 58.7592 50.0013 58.7592ZM28.6713 30.9992C27.0613 30.9992 25.4813 31.8392 24.6213 33.3292C23.3313 35.5592 24.1013 38.4192 26.3313 39.6992L50.0013 53.3692L73.6713 39.7092C74.7513 39.0892 75.5213 38.0792 75.8413 36.8792C76.1613 35.6792 76.0013 34.4192 75.3713 33.3392C74.7413 32.2592 73.7413 31.4892 72.5413 31.1692C71.3413 30.8492 70.0813 31.0092 69.0013 31.6392L51.2513 41.8792C50.4813 42.3292 49.5213 42.3292 48.7513 41.8792L31.0013 31.6292C30.2613 31.2092 29.4613 30.9992 28.6713 30.9992Z" fill="#F32735"/>
<path d="M35.5013 31.3391V47.8891L25.0813 41.8691C22.7913 40.5391 21.5013 38.1291 21.5013 35.6591C21.5013 34.4391 21.8113 33.2191 22.4613 32.0891C24.4413 28.6591 28.8213 27.4791 32.2513 29.4591L35.5013 31.3391Z" fill="#ED40A9"/>
<path d="M35.5013 31.3391V47.8891L25.0813 41.8691C22.7913 40.5391 21.5013 38.1291 21.5013 35.6591C21.5013 34.4391 21.8113 33.2191 22.4613 32.0891C24.4413 28.6591 28.8213 27.4791 32.2513 29.4591L35.5013 31.3391Z" fill="#ED40A9"/>
<path d="M35.5013 50.3892C35.0713 50.3892 34.6413 50.2792 34.2513 50.0492L23.8313 44.0392C20.8513 42.2992 19.0013 39.0992 19.0013 35.6592C19.0013 33.9792 19.4513 32.3092 20.2913 30.8392C22.9613 26.2192 28.8913 24.6292 33.5013 27.2992L36.7513 29.1792C37.5213 29.6292 38.0013 30.4492 38.0013 31.3392V47.8892C38.0013 48.7792 37.5213 49.6092 36.7513 50.0592C36.3613 50.2792 35.9313 50.3892 35.5013 50.3892ZM28.6813 30.9992C27.0613 30.9992 25.4913 31.8392 24.6313 33.3392C24.2113 34.0592 24.0013 34.8392 24.0013 35.6592C24.0013 37.3192 24.9013 38.8692 26.3413 39.7092L33.0013 43.5592V32.7792L31.0013 31.6192C30.2713 31.1992 29.4713 30.9992 28.6813 30.9992Z" fill="#CB007B"/>
<path d="M25.0813 44.3692C24.6513 44.3692 24.2213 44.2592 23.8313 44.0292C20.8513 42.2992 19.0013 39.0992 19.0013 35.6592C19.0013 33.9792 19.4513 32.3092 20.2913 30.8392C22.9613 26.2192 28.8913 24.6292 33.5013 27.2992C34.7013 27.9892 35.1113 29.5192 34.4213 30.7192C33.7313 31.9092 32.2013 32.3292 31.0013 31.6392C28.7713 30.3492 25.9113 31.1192 24.6213 33.3492C24.2113 34.0592 24.0013 34.8392 24.0013 35.6592C24.0013 37.3192 24.9013 38.8692 26.3413 39.7092C27.5313 40.3992 27.9413 41.9292 27.2513 43.1292C26.7813 43.9292 25.9413 44.3692 25.0813 44.3692Z" fill="#E50695"/>
<path d="M76.5013 74.1591H64.5013C63.1213 74.1591 62.0013 73.0391 62.0013 71.6591V31.3391C62.0013 30.4491 62.4813 29.6191 63.2513 29.1791L66.5013 27.2991C71.1213 24.6391 77.0413 26.2191 79.7113 30.8391C80.5513 32.3091 81.0013 33.9791 81.0013 35.6591V69.6591C81.0013 72.1391 78.9813 74.1591 76.5013 74.1591ZM67.0013 69.1591H76.0013V35.6591C76.0013 34.8391 75.7913 34.0591 75.3713 33.3391C74.0813 31.1091 71.2213 30.3391 69.0013 31.6291L67.0013 32.7891V69.1591Z" fill="#0C82EB"/>
<path d="M78.5013 35.6591C78.5013 38.1291 77.2113 40.5391 74.9213 41.8691L64.5013 47.8891V31.3391L67.7513 29.4591C71.1813 27.4791 75.5613 28.6591 77.5413 32.0891C78.1913 33.2191 78.5013 34.4391 78.5013 35.6591Z" fill="#FFC56D"/>
<path d="M64.5013 50.3891C64.0713 50.3891 63.6413 50.2791 63.2513 50.0591C62.4713 49.6091 62.0013 48.7791 62.0013 47.8891V31.3391C62.0013 30.4491 62.4813 29.6191 63.2513 29.1791L66.5013 27.2991C71.1213 24.6391 77.0413 26.2191 79.7113 30.8391C80.5513 32.3091 81.0013 33.9791 81.0013 35.6591C81.0013 39.0991 79.1513 42.2991 76.1813 44.0291L65.7613 50.0491C65.3613 50.2791 64.9313 50.3891 64.5013 50.3891ZM67.0013 32.7791V43.5591L73.6713 39.7091C75.1013 38.8691 76.0013 37.3191 76.0013 35.6591C76.0013 34.8391 75.7913 34.0591 75.3713 33.3391C74.0813 31.1091 71.2213 30.3391 69.0013 31.6291L67.0013 32.7791Z" fill="#FF9E18"/>
<path d="M74.9213 44.3692C74.0613 44.3692 73.2213 43.9192 72.7613 43.1192C72.0713 41.9292 72.4713 40.3992 73.6713 39.6992C75.1013 38.8692 76.0013 37.3192 76.0013 35.6592C76.0013 34.8392 75.7913 34.0592 75.3713 33.3392C74.0813 31.1092 71.2213 30.3392 69.0013 31.6292C67.8113 32.3192 66.2813 31.9092 65.5813 30.7092C64.8913 29.5092 65.3013 27.9892 66.5013 27.2892C71.1113 24.6292 77.0413 26.2192 79.7113 30.8292C80.5513 32.3092 81.0013 33.9792 81.0013 35.6592C81.0013 39.0992 79.1513 42.2992 76.1813 44.0292C75.7813 44.2592 75.3513 44.3692 74.9213 44.3692Z" fill="#FFB548"/>
</svg>
