<svg xmlns="http://www.w3.org/2000/svg" width="512" height="130" style="overflow: visible;" viewBox="0 0 512 130" data-svgdocument="" id="_ZDpcmLMIRLgQVdtGhTZ8N" class="fl-svgdocument" x="0" y="0" overflow="hidden" data-bbox="55.25991189427299 206.43782475012623 425.4008083626987 99.12435049974758">
  <defs id="_SfvkcsrzYAh59GvjCf_-V" transform="matrix(0.9800928235054016, 0, 0, 0.9800928235054016, 8.276779174804688, 29.06043815612793)" data-uid="o_f22fhifm9_6">
    <linearGradient id="o_f22fhifm9_3" x1="0" y1="0.5" x2="1" y2="0.5" data-uid="o_f22fhifm9_7">
      <stop id="_SfmwBAhnrX5y_-xItFJFX" offset="0%" stop-color="rgb(51, 181, 204)" stop-opacity="0.53" data-uid="o_f22fhifm9_8"></stop>
      <stop id="_uppgOmvJmiJ5sG12km2jn" offset="100%" stop-color="rgb(51, 181, 204)" stop-opacity="0.53" data-uid="o_f22fhifm9_9"></stop>
    </linearGradient>
    <linearGradient id="o_f22fhifm9_4" x1="0" y1="0.5" x2="1" y2="0.5" data-uid="o_f22fhifm9_10">
      <stop id="_tbIwmNj3oWPFS3gGTbofb" offset="0%" stop-color="rgb(236, 76, 76)" stop-opacity="0.77" data-uid="o_f22fhifm9_11"></stop>
      <stop id="_5yPsjphs6SDntc8qzGDFK" offset="100%" stop-color="rgb(236, 76, 76)" stop-opacity="0.77" data-uid="o_f22fhifm9_12"></stop>
    </linearGradient>
  </defs>
  <g id="_bh4yFSGXvCIksWryRUBfh" transform="matrix(1.084506630897522, 0, 0, 1.084506630897522, -153.7045271923755, -166.48182407449607)" data-uid="o_f22fhifm9_13">
    <path id="_lFHLCIm9jrAhMzvb5TT7Q" fill-rule="evenodd" clip-rule="evenodd" d="M73.232 28.96c-5.631 0-10.194 4.567-10.194 10.197   c0 8.74-4.368 13.108-13.11 13.108c-8.737 0-13.111-4.369-13.111-13.108c0-5.63-4.563-10.197-10.194-10.197   s-10.194 4.567-10.194 10.197c0 5.631 4.563 10.198 10.194 10.198c8.742 0 13.111 4.369 13.111 13.111   c0 5.631 4.563 10.194 10.195 10.194c5.63 0 10.2-4.563 10.2-10.194c0-8.742 4.368-13.111 13.104-13.111   c5.637 0 10.2-4.567 10.2-10.198C83.433 33.527 78.869 28.96 73.232 28.96z" fill="#ede576" transform="matrix(1.3592214584350586, 0, 0, 1.3592214584350586, 190.8471221923828, 128.82566833496094)" data-uid="o_f22fhifm9_14"></path>
    <path id="_1NJrTZPTBjGBjdtSlhx8M" fill-rule="evenodd" clip-rule="evenodd" d="M73.232 28.96c-5.631 0-10.194 4.567-10.194 10.197   c0 8.74-4.368 13.108-13.11 13.108c-8.737 0-13.111-4.369-13.111-13.108c0-5.63-4.563-10.197-10.194-10.197   s-10.194 4.567-10.194 10.197c0 5.631 4.563 10.198 10.194 10.198c8.742 0 13.111 4.369 13.111 13.111   c0 5.631 4.563 10.194 10.195 10.194c5.63 0 10.2-4.563 10.2-10.194c0-8.742 4.368-13.111 13.104-13.111   c5.637 0 10.2-4.567 10.2-10.198C83.433 33.527 78.869 28.96 73.232 28.96z" fill="url(#o_f22fhifm9_3)" transform="matrix(1.3592214584350586, 0, 0, 1.3592214584350586, 222.15106201171875, 160.4798583984375)" data-uid="o_f22fhifm9_15"></path>
    <path id="_Xzmaaa6FYpgU9qEdtVcin" fill-rule="evenodd" clip-rule="evenodd" d="M73.232 28.96c-5.631 0-10.194 4.567-10.194 10.197   c0 8.74-4.368 13.108-13.11 13.108c-8.737 0-13.111-4.369-13.111-13.108c0-5.63-4.563-10.197-10.194-10.197   s-10.194 4.567-10.194 10.197c0 5.631 4.563 10.198 10.194 10.198c8.742 0 13.111 4.369 13.111 13.111   c0 5.631 4.563 10.194 10.195 10.194c5.63 0 10.2-4.563 10.2-10.194c0-8.742 4.368-13.111 13.104-13.111   c5.637 0 10.2-4.567 10.2-10.198C83.433 33.527 78.869 28.96 73.232 28.96z" fill="url(#o_f22fhifm9_4)" transform="matrix(0, 1.3592214584350586, -1.3592214584350586, 0, 280.41424560546875, 145.50982666015625)" data-uid="o_f22fhifm9_16"></path>
  </g>
  <path text="Easy email" text-anchor="middle" font-size="100" letter-spacing="0" side="left" offset="0.5" dx="0" dy="0" space="preserve" href="" font-family="Exo" font-scale="contain" transform="matrix(0.45094484090805054, 0, 0, 0.6685908436775208, 355.1750351855542, 82.68842014242287)" x="0" y="0" fill="#3a3a3a" data-fl-textpath="" id="_nGJWNybCRTxZiPxyJCFCo" font-weight="700" font-style="normal" data-uid="o_f22fhifm9_17" d="M-228.45000000000002 0.5L-228.45000000000002 0.5Q-230.85000000000002 0.5 -233.95000000000002 0.05Q-237.05-0.4 -239.90000000000003-2Q-242.75000000000003-3.6 -244.60000000000002-6.85Q-246.45000000000002-10.1 -246.45000000000002-15.8L-246.45000000000002-15.8L-246.45000000000002-57.1Q-246.45000000000002-62 -244.95000000000002-65.3Q-243.45000000000002-68.6 -240.95000000000002-70.5Q-238.45000000000002-72.4 -235.45000000000002-73.2Q-232.45000000000002-74 -229.55-74L-229.55-74Q-222.05-74 -216.3-73.8Q-210.55-73.6 -205.95000000000002-73.35Q-201.35000000000002-73.1 -197.55-72.7L-197.55-72.7L-197.55-60.3L-225.15000000000003-60.3Q-228.25000000000003-60.3 -229.95000000000002-58.8Q-231.65000000000003-57.3 -231.65000000000003-54.2L-231.65000000000003-54.2L-231.65000000000003-43.5L-202.35000000000002-42.7L-202.35000000000002-31L-231.65000000000003-30.2L-231.65000000000003-20Q-231.65000000000003-17.4 -230.8-15.95Q-229.95000000000002-14.5 -228.50000000000003-13.95Q-227.05-13.4 -225.45000000000002-13.4L-225.45000000000002-13.4L-197.55-13.4L-197.55-1Q-201.95000000000002-0.5 -207.3-0.2Q-212.65000000000003 0.1 -218.10000000000002 0.3Q-223.55 0.5 -228.45000000000002 0.5ZM-176.05000000000004 0.6L-176.05000000000004 0.6Q-182.15000000000003 0.6 -185.95000000000005-3Q-189.75000000000003-6.6 -189.75000000000003-13L-189.75000000000003-13L-189.75000000000003-17.8Q-189.75000000000003-23.9 -185.45000000000005-27.85Q-181.15000000000003-31.8 -172.05000000000004-31.8L-172.05000000000004-31.8L-158.35000000000002-31.8L-158.35000000000002-35.5Q-158.35000000000002-38 -159.25000000000003-39.65Q-160.15000000000003-41.3 -162.60000000000002-42.05Q-165.05000000000004-42.8 -170.05000000000004-42.8L-170.05000000000004-42.8L-186.15000000000003-42.8L-186.15000000000003-51.4Q-182.25000000000003-52.6 -177.10000000000002-53.5Q-171.95000000000005-54.4 -164.65000000000003-54.4L-164.65000000000003-54.4Q-157.95000000000005-54.4 -153.20000000000005-52.8Q-148.45000000000005-51.2 -146.00000000000003-47.3Q-143.55000000000004-43.4 -143.55000000000004-36.5L-143.55000000000004-36.5L-143.55000000000004 0L-155.25000000000003 0L-157.65000000000003-5.7Q-158.35000000000002-4.9 -160.05000000000004-3.9Q-161.75000000000003-2.9 -164.20000000000005-1.85Q-166.65000000000003-0.8 -169.70000000000005-0.1Q-172.75000000000003 0.6 -176.05000000000004 0.6ZM-168.55000000000004-9.7L-168.55000000000004-9.7Q-167.55000000000004-9.7 -166.30000000000004-9.95Q-165.05000000000004-10.2 -163.70000000000005-10.55Q-162.35000000000002-10.9 -161.20000000000005-11.25Q-160.05000000000004-11.6 -159.30000000000004-11.9Q-158.55000000000004-12.2 -158.35000000000002-12.3L-158.35000000000002-12.3L-158.35000000000002-24.8L-167.35000000000002-24.2Q-171.25000000000003-23.9 -173.10000000000002-22.2Q-174.95000000000005-20.5 -174.95000000000005-17.6L-174.95000000000005-17.6L-174.95000000000005-15.4Q-174.95000000000005-13.4 -174.10000000000002-12.1Q-173.25000000000003-10.8 -171.80000000000004-10.25Q-170.35000000000002-9.7 -168.55000000000004-9.7ZM-112.95000000000003 0.6L-112.95000000000003 0.6Q-115.45000000000003 0.6 -118.35000000000004 0.45Q-121.25000000000003 0.3 -124.15000000000003 0Q-127.05000000000004-0.3 -129.55000000000004-0.75Q-132.05000000000004-1.2 -133.75000000000003-1.8L-133.75000000000003-1.8L-133.75000000000003-10.5L-109.95000000000003-10.5Q-107.85000000000004-10.5 -106.50000000000003-10.85Q-105.15000000000003-11.2 -104.50000000000003-12.15Q-103.85000000000004-13.1 -103.85000000000004-14.9L-103.85000000000004-14.9L-103.85000000000004-16.6Q-103.85000000000004-18.6 -105.15000000000003-19.7Q-106.45000000000003-20.8 -109.95000000000003-20.8L-109.95000000000003-20.8L-118.35000000000004-20.8Q-122.95000000000003-20.8 -126.65000000000003-22.2Q-130.35000000000002-23.6 -132.50000000000003-26.8Q-134.65000000000003-30 -134.65000000000003-35.4L-134.65000000000003-35.4L-134.65000000000003-38.5Q-134.65000000000003-43.6 -132.65000000000003-47.1Q-130.65000000000003-50.6 -125.95000000000003-52.4Q-121.25000000000003-54.2 -113.05000000000004-54.2L-113.05000000000004-54.2Q-109.75000000000003-54.2 -106.00000000000003-53.85Q-102.25000000000003-53.5 -98.90000000000003-52.95Q-95.55000000000004-52.4 -93.55000000000004-51.7L-93.55000000000004-51.7L-93.55000000000004-43L-116.05000000000004-43Q-118.95000000000003-43 -120.45000000000003-42.05Q-121.95000000000003-41.1 -121.95000000000003-38.5L-121.95000000000003-38.5L-121.95000000000003-36.9Q-121.95000000000003-35.1 -121.25000000000003-34.25Q-120.55000000000004-33.4 -119.10000000000004-33.05Q-117.65000000000003-32.7 -115.45000000000003-32.7L-115.45000000000003-32.7L-106.85000000000004-32.7Q-98.65000000000003-32.7 -94.90000000000003-28.95Q-91.15000000000003-25.2 -91.15000000000003-18.6L-91.15000000000003-18.6L-91.15000000000003-13.8Q-91.15000000000003-8.4 -93.70000000000003-5.25Q-96.25000000000003-2.1 -101.10000000000004-0.75Q-105.95000000000003 0.6 -112.95000000000003 0.6ZM-54.35000000000004 23.7L-66.65000000000003 23.7L-60.85000000000004 0Q-65.35000000000004 0 -68.75000000000003-1.7Q-72.15000000000003-3.4 -74.40000000000003-6.55Q-76.65000000000003-9.7 -77.85000000000004-14.4L-77.85000000000004-14.4L-87.95000000000003-53.7L-72.55000000000004-53.7L-64.05000000000004-17.4Q-63.55000000000003-15.5 -62.750000000000036-14.4Q-61.95000000000003-13.3 -61.05000000000003-12.85Q-60.150000000000034-12.4 -59.400000000000034-12.25Q-58.650000000000034-12.1 -58.250000000000036-12.1L-58.250000000000036-12.1L-48.55000000000003-53.7L-33.55000000000003-53.7L-49.55000000000003 13.8L-54.35000000000004 23.7ZM 21.849999999999973 0.5L 21.849999999999973 0.5Q 12.94999999999997 0.5  7.649999999999972-1.85Q 2.349999999999973-4.2 -2.7533531010703882e-14-10.2Q-2.350000000000028-16.2 -2.350000000000028-26.8L-2.350000000000028-26.8Q-2.350000000000028-37.7 -0.1500000000000279-43.7Q 2.0499999999999723-49.7  7.249999999999972-52.1Q 12.44999999999997-54.5  21.349999999999973-54.5L 21.349999999999973-54.5Q 29.34999999999997-54.5  34.14999999999998-52.9Q 38.949999999999974-51.3  41.099999999999966-47.3Q 43.24999999999997-43.3  43.24999999999997-36L 43.24999999999997-36Q 43.24999999999997-30.6  41.099999999999966-27.45Q 38.949999999999974-24.3  35.04999999999997-22.95Q 31.149999999999974-21.6  25.84999999999997-21.6L 25.84999999999997-21.6L 12.349999999999973-21.6Q 12.549999999999972-17.5  13.599999999999973-15.05Q 14.649999999999974-12.6  17.49999999999997-11.55Q 20.349999999999973-10.5  25.749999999999975-10.5L 25.749999999999975-10.5L 41.449999999999974-10.5L 41.449999999999974-1.8Q 37.54999999999997-1  32.89999999999998-0.25Q 28.249999999999975 0.5  21.849999999999973 0.5ZM 12.149999999999974-30.4L 12.149999999999974-30.4L 24.349999999999973-30.4Q 27.34999999999997-30.4  28.749999999999975-31.6Q 30.149999999999974-32.8  30.149999999999974-35.9L 30.149999999999974-35.9Q 30.149999999999974-38.8  29.249999999999975-40.55Q 28.34999999999997-42.3  26.44999999999997-43.05Q 24.549999999999972-43.8  21.349999999999973-43.8L 21.349999999999973-43.8Q 17.94999999999997-43.8  15.94999999999997-42.65Q 13.94999999999997-41.5  13.049999999999972-38.6Q 12.149999999999974-35.7  12.149999999999974-30.4ZM 67.74999999999997 0L 52.94999999999998 0L 52.94999999999998-53.7L 65.14999999999998-53.7L 67.74999999999997-48.2Q 71.24999999999997-50.8  75.39999999999998-52.7Q 79.54999999999998-54.6  85.64999999999998-54.6L 85.64999999999998-54.6Q 90.74999999999997-54.6  94.09999999999998-52.5Q 97.44999999999999-50.4  99.14999999999998-47L 99.14999999999998-47Q 101.44999999999999-48.8  104.49999999999997-50.5Q 107.54999999999998-52.2  111.04999999999998-53.4Q 114.54999999999998-54.6  117.94999999999999-54.6L 117.94999999999999-54.6Q 124.44999999999999-54.6  128.2-52.15Q 131.95-49.7  133.45-45.25Q 134.95-40.8  134.95-34.8L 134.95-34.8L 134.95 0L 120.14999999999998 0L 120.14999999999998-33.5Q 120.14999999999998-36.1  119.19999999999999-37.8Q 118.24999999999997-39.5  116.54999999999998-40.4Q 114.84999999999997-41.3  112.44999999999999-41.3L 112.44999999999999-41.3Q 109.44999999999999-41.3  106.39999999999998-40.05Q 103.34999999999998-38.8  100.94999999999999-37.1L 100.94999999999999-37.1Q 101.14999999999998-36.1  101.24999999999997-35.15Q 101.34999999999998-34.2  101.34999999999998-33.2L 101.34999999999998-33.2L 101.34999999999998 0L 86.54999999999998 0L 86.54999999999998-33.5Q 86.54999999999998-36.1  85.59999999999998-37.8Q 84.64999999999998-39.5  82.94999999999999-40.4Q 81.24999999999997-41.3  78.84999999999998-41.3L 78.84999999999998-41.3Q 76.74999999999997-41.3  74.79999999999998-40.8Q 72.84999999999998-40.3  71.09999999999998-39.4Q 69.34999999999998-38.5  67.74999999999997-37.3L 67.74999999999997-37.3L 67.74999999999997 0ZM 157.44999999999996 0.6L 157.44999999999996 0.6Q 151.34999999999997 0.6  147.54999999999995-3Q 143.74999999999997-6.6  143.74999999999997-13L 143.74999999999997-13L 143.74999999999997-17.8Q 143.74999999999997-23.9  148.04999999999995-27.85Q 152.34999999999997-31.8  161.44999999999996-31.8L 161.44999999999996-31.8L 175.14999999999998-31.8L 175.14999999999998-35.5Q 175.14999999999998-38  174.24999999999997-39.65Q 173.34999999999997-41.3  170.89999999999998-42.05Q 168.44999999999996-42.8  163.44999999999996-42.8L 163.44999999999996-42.8L 147.34999999999997-42.8L 147.34999999999997-51.4Q 151.24999999999997-52.6  156.39999999999998-53.5Q 161.54999999999995-54.4  168.84999999999997-54.4L 168.84999999999997-54.4Q 175.54999999999995-54.4  180.29999999999995-52.8Q 185.04999999999995-51.2  187.49999999999997-47.3Q 189.94999999999996-43.4  189.94999999999996-36.5L 189.94999999999996-36.5L 189.94999999999996 0L 178.24999999999997 0L 175.84999999999997-5.7Q 175.14999999999998-4.9  173.44999999999996-3.9Q 171.74999999999997-2.9  169.29999999999995-1.85Q 166.84999999999997-0.8  163.79999999999995-0.1Q 160.74999999999997 0.6  157.44999999999996 0.6ZM 164.94999999999996-9.7L 164.94999999999996-9.7Q 165.94999999999996-9.7  167.19999999999996-9.95Q 168.44999999999996-10.2  169.79999999999995-10.55Q 171.14999999999998-10.9  172.29999999999995-11.25Q 173.44999999999996-11.6  174.19999999999996-11.9Q 174.94999999999996-12.2  175.14999999999998-12.3L 175.14999999999998-12.3L 175.14999999999998-24.8L 166.14999999999998-24.2Q 162.24999999999997-23.9  160.39999999999998-22.2Q 158.54999999999995-20.5  158.54999999999995-17.6L 158.54999999999995-17.6L 158.54999999999995-15.4Q 158.54999999999995-13.4  159.39999999999998-12.1Q 160.24999999999997-10.8  161.69999999999996-10.25Q 163.14999999999998-9.7  164.94999999999996-9.7ZM 214.24999999999997-61.6L 202.84999999999997-61.6Q 200.74999999999997-61.6  200.74999999999997-63.6L 200.74999999999997-63.6L 200.74999999999997-73.4Q 200.74999999999997-75.5  202.84999999999997-75.5L 202.84999999999997-75.5L 214.24999999999997-75.5Q 215.14999999999998-75.5  215.64999999999998-74.9Q 216.14999999999998-74.3  216.14999999999998-73.4L 216.14999999999998-73.4L 216.14999999999998-63.6Q 216.14999999999998-61.6  214.24999999999997-61.6L 214.24999999999997-61.6ZM 215.84999999999997 0L 201.04999999999995 0L 201.04999999999995-53.7L 215.84999999999997-53.7L 215.84999999999997 0ZM 251.74999999999994 0.2L 244.04999999999995 0.2Q 238.34999999999997 0.2  234.59999999999997-1.65Q 230.84999999999997-3.5  229.04999999999995-7.35Q 227.24999999999994-11.2  227.24999999999994-17.3L 227.24999999999994-17.3L 227.24999999999994-76.3L 242.04999999999995-76.3L 242.04999999999995-19.5Q 242.04999999999995-16.5  242.64999999999995-14.75Q 243.24999999999994-13  244.49999999999994-12.2Q 245.74999999999994-11.4  247.64999999999995-11.1L 247.64999999999995-11.1L 251.74999999999994-10.5L 251.74999999999994 0.2Z"></path>
</svg>