<svg xmlns="http://www.w3.org/2000/svg" width="512" height="512" style="overflow: visible;" viewBox="0 0 512 512" data-svgdocument="" id="_ZDpcmLMIRLgQVdtGhTZ8N" class="fl-svgdocument" x="0" y="0" overflow="hidden" data-bbox="62.44424759269532 130.03571384089895 387.1115048146095 229.90086735273087">
  <defs id="_SfvkcsrzYAh59GvjCf_-V" transform="matrix(0.9800928235054016, 0, 0, 0.9800928235054016, 8.276779174804688, 29.06043815612793)" data-uid="o_f22f6fa5c_6">
    <linearGradient id="o_f22f6fa5c_3" x1="0" y1="0.5" x2="1" y2="0.5" data-uid="o_f22f6fa5c_7">
      <stop id="_SfmwBAhnrX5y_-xItFJFX" offset="0%" stop-color="rgb(51, 181, 204)" stop-opacity="0.53" data-uid="o_f22f6fa5c_8"></stop>
      <stop id="_uppgOmvJmiJ5sG12km2jn" offset="100%" stop-color="rgb(51, 181, 204)" stop-opacity="0.53" data-uid="o_f22f6fa5c_9"></stop>
    </linearGradient>
    <linearGradient id="o_f22f6fa5c_4" x1="0" y1="0.5" x2="1" y2="0.5" data-uid="o_f22f6fa5c_10">
      <stop id="_tbIwmNj3oWPFS3gGTbofb" offset="0%" stop-color="rgb(236, 76, 76)" stop-opacity="0.77" data-uid="o_f22f6fa5c_11"></stop>
      <stop id="_5yPsjphs6SDntc8qzGDFK" offset="100%" stop-color="rgb(236, 76, 76)" stop-opacity="0.77" data-uid="o_f22f6fa5c_12"></stop>
    </linearGradient>
  </defs>
  <g id="_bh4yFSGXvCIksWryRUBfh" transform="matrix(2.515315532684326, 0, 0, 2.515315532684326, -394.4709167480469, -292.13604736328125)" data-uid="o_f22f6fa5c_13">
    <path id="_lFHLCIm9jrAhMzvb5TT7Q" fill-rule="evenodd" clip-rule="evenodd" d="M73.232 28.96c-5.631 0-10.194 4.567-10.194 10.197   c0 8.74-4.368 13.108-13.11 13.108c-8.737 0-13.111-4.369-13.111-13.108c0-5.63-4.563-10.197-10.194-10.197   s-10.194 4.567-10.194 10.197c0 5.631 4.563 10.198 10.194 10.198c8.742 0 13.111 4.369 13.111 13.111   c0 5.631 4.563 10.194 10.195 10.194c5.63 0 10.2-4.563 10.2-10.194c0-8.742 4.368-13.111 13.104-13.111   c5.637 0 10.2-4.567 10.2-10.198C83.433 33.527 78.869 28.96 73.232 28.96z" fill="#ede576" transform="matrix(1.3592214584350586, 0, 0, 1.3592214584350586, 190.8471221923828, 128.82566833496094)" data-uid="o_f22f6fa5c_14"></path>
    <path id="_1NJrTZPTBjGBjdtSlhx8M" fill-rule="evenodd" clip-rule="evenodd" d="M73.232 28.96c-5.631 0-10.194 4.567-10.194 10.197   c0 8.74-4.368 13.108-13.11 13.108c-8.737 0-13.111-4.369-13.111-13.108c0-5.63-4.563-10.197-10.194-10.197   s-10.194 4.567-10.194 10.197c0 5.631 4.563 10.198 10.194 10.198c8.742 0 13.111 4.369 13.111 13.111   c0 5.631 4.563 10.194 10.195 10.194c5.63 0 10.2-4.563 10.2-10.194c0-8.742 4.368-13.111 13.104-13.111   c5.637 0 10.2-4.567 10.2-10.198C83.433 33.527 78.869 28.96 73.232 28.96z" fill="url(#o_f22f6fa5c_3)" transform="matrix(1.3592214584350586, 0, 0, 1.3592214584350586, 222.15106201171875, 160.4798583984375)" data-uid="o_f22f6fa5c_15"></path>
    <path id="_Xzmaaa6FYpgU9qEdtVcin" fill-rule="evenodd" clip-rule="evenodd" d="M73.232 28.96c-5.631 0-10.194 4.567-10.194 10.197   c0 8.74-4.368 13.108-13.11 13.108c-8.737 0-13.111-4.369-13.111-13.108c0-5.63-4.563-10.197-10.194-10.197   s-10.194 4.567-10.194 10.197c0 5.631 4.563 10.198 10.194 10.198c8.742 0 13.111 4.369 13.111 13.111   c0 5.631 4.563 10.194 10.195 10.194c5.63 0 10.2-4.563 10.2-10.194c0-8.742 4.368-13.111 13.104-13.111   c5.637 0 10.2-4.567 10.2-10.198C83.433 33.527 78.869 28.96 73.232 28.96z" fill="url(#o_f22f6fa5c_4)" transform="matrix(0, 1.3592214584350586, -1.3592214584350586, 0, 280.41424560546875, 145.50982666015625)" data-uid="o_f22f6fa5c_16"></path>
  </g>
</svg>