<svg width="64" height="80" viewBox="0 0 64 80" fill="none" xmlns="http://www.w3.org/2000/svg">
<path d="M0 4C0 1.79086 1.79086 0 4 0H60C62.2091 0 64 1.79086 64 4V76C64 78.2091 62.2091 80 60 80H4C1.79086 80 0 78.2091 0 76V4Z" fill="white"/>
<rect x="8" y="41" width="20" height="11" rx="2" fill="#DFE3E6"/>
<rect x="8" y="12" width="48" height="11" rx="2" fill="#DFE3E6"/>
<rect x="8" y="56" width="20" height="2" rx="1" fill="#DFE3E6"/>
<rect x="8" y="27" width="48" height="2" rx="1" fill="#DFE3E6"/>
<rect x="8" y="31" width="25" height="2" rx="1" fill="#DFE3E6"/>
<rect x="8" y="60" width="12" height="2" rx="1" fill="#DFE3E6"/>
<rect x="36" y="60" width="12" height="2" rx="1" fill="#DFE3E6"/>
<rect x="36" y="56" width="20" height="2" rx="1" fill="#DFE3E6"/>
<rect x="36" y="41" width="20" height="11" rx="2" fill="#DFE3E6"/>
<path d="M4 1H60V-1H4V1ZM63 4V76H65V4H63ZM60 79H4V81H60V79ZM1 76V4H-1V76H1ZM4 79C2.34315 79 1 77.6569 1 76H-1C-1 78.7614 1.23858 81 4 81V79ZM63 76C63 77.6569 61.6569 79 60 79V81C62.7614 81 65 78.7614 65 76H63ZM60 1C61.6569 1 63 2.34315 63 4H65C65 1.23858 62.7614 -1 60 -1V1ZM4 -1C1.23858 -1 -1 1.23858 -1 4H1C1 2.34315 2.34315 1 4 1V-1Z" fill="#DFE3E6"/>
</svg>
